# xmcd
#
# Track frame offsets: 
#        150
#        13428
#        29405
#        45635
#        60949
#        75841
#        94895
#        119633
#        142732
#        161776
#        179337
#        192593
#
# Disc length: 2801 seconds
#
# Revision: 0
# Processed by: cddbd v1.5.2PL0 Copyright (c) Steve Scherf et al.
# Submitted via: ExactAudioCopy v0.99pb5
#
DISCID=9e0aef0c
DTITLE=Brandon Jenkins - Brothers Of The Dirt
DYEAR=2009
DGENRE=Country
TTITLE0=Blood For Oil
TTITLE1=What I Was Born To Be
TTITLE2=All In All
TTITLE3=Out Of Babylon
TTITLE4=White Van Blues
TTITLE5=Innocent Man
TTITLE6=Streets Of North Hollywood
TTITLE7=Marching Toward The Guns
TTITLE8=We Could Go To Paris
TTITLE9=Hearts Don't Break Even
TTITLE10=Ricardo's Cadillac
TTITLE11=Each Step You Take
EXTD=
EXTT0=
EXTT1=
EXTT2=
EXTT3=
EXTT4=
EXTT5=
EXTT6=
EXTT7=
EXTT8=
EXTT9=
EXTT10=
EXTT11=
PLAYORDER=
